# xmcd CD database file
#
# Track frame offsets:
#	150
#	21563
#	42848
#	65715
#	87028
#	109705
#	131198
#	155495
#	179353
#
# Disc length: 2699 seconds
#
# Revision: 1
# Processed by: cddbd v1.4PL0 Copyright (c) Steve Scherf et al.
# Submitted via: CDex 1.50
#
DISCID=7a0a8909
DTITLE=Jorge "Piro" Romero - Tiempo de Alabar
DYEAR=1900
DGENRE=Salsa
TTITLE0=Tiempo de Alabar
TTITLE1=Roca de Salvacion
TTITLE2=Llegaste a Mi
TTITLE3=Yo Esperare Por Ti
TTITLE4=Tiempo de Alabar II
TTITLE5=Que Te Pasa
TTITLE6=Mi Amigo
TTITLE7=Detente
TTITLE8=Cielo Y Mar
EXTD=
EXTT0=
EXTT1=
EXTT2=
EXTT3=
EXTT4=
EXTT5=
EXTT6=
EXTT7=
EXTT8=
PLAYORDER=
